<svg xmlns="http://www.w3.org/2000/svg" width="810.07933" height="417.80302" viewBox="0 0 810.07933 417.80302"><defs><style>.cls-1{fill:#ccc;}.cls-2{fill:#e6e6e6;}.cls-3{fill:#fff;}.cls-4{fill:#476f9e;}.cls-5{fill:#82abd9;}.cls-6{fill:#6f9fd6;}.cls-7{fill:#495566;}.cls-8{font-size:54.63157px;fill:#fcfcfc;font-family:Convection;}.cls-9{letter-spacing:0.02002em;}.cls-10{letter-spacing:0.00781em;}.cls-11{letter-spacing:0.00586em;}.cls-12{letter-spacing:-0.00586em;}</style></defs><g id="Layer_2" data-name="Layer 2"><g id="Logo_Light" data-name="Logo Light"><polygon class="cls-1" points="0 325.381 160.079 417.803 160.079 232.959 0 325.381"/><polygon class="cls-2" points="320.159 325.381 160.079 232.959 160.079 417.803 320.159 325.381"/><polygon class="cls-3" points="0 140.537 160.079 232.959 160.079 48.116 0 140.537"/><polygon class="cls-1" points="0.079 140.537 0.079 325.381 160.159 232.959 0.079 140.537"/><polygon class="cls-3" points="160.079 47.312 184.079 61.168 184.079 247.508 160.079 233.603 160.079 47.312"/><polygon class="cls-4" points="49.049 297.006 160.079 361.053 160.079 232.959 49.049 297.006"/><polygon class="cls-5" points="49.049 168.856 160.079 232.959 160.079 104.752 49.049 168.856"/><polygon class="cls-4" points="49.079 168.856 49.079 297.063 160.11 232.959 49.079 168.856"/><polygon class="cls-5" points="211.884 203.05 160.079 173.141 160.079 232.959 211.884 203.05"/><polygon class="cls-6" points="271.11 297.013 160.079 232.909 160.079 361.053 271.11 297.013"/><polygon class="cls-5" points="184.079 118.067 160.079 104.255 160.079 233.597 184.079 219.786 184.079 118.067"/><polygon class="cls-6" points="212.079 262.869 212.079 203.05 160.275 232.959 212.079 262.869"/><path class="cls-7" d="M259.20977,3a1.5009,1.5009,0,0,0,0-3,1.5009,1.5009,0,0,0,0,3Z"/></g><g id="Text_Light" data-name="Text Light"><text class="cls-8" transform="translate(223.67943 249.74006)">SU<tspan class="cls-9" x="62.5542" y="0">T</tspan><tspan x="90.96387" y="0">TI</tspan><tspan class="cls-10" x="130.7373" y="0">S</tspan><tspan x="159.52002" y="0">AK’S </tspan><tspan class="cls-11" x="272.38428" y="0">P</tspan><tspan x="301.64746" y="0">O</tspan><tspan class="cls-12" x="334.69873" y="0">R</tspan><tspan x="364.86865" y="0">TFOLIO</tspan></text><path class="cls-3" d="M479.34249,104.15217h-8.52632a8.14594,8.14594,0,0,0-6.31579,2.65266q-2.41973,2.654-2.421,7.63964v32.41541q0,4.98567,2.421,7.63964a8.14593,8.14593,0,0,0,6.31579,2.65265h8.52632a8.14592,8.14592,0,0,0,6.31579-2.65265q2.41974-2.654,2.42105-7.63964V114.44447q0-4.98567-2.42105-7.63964A8.14592,8.14592,0,0,0,479.34249,104.15217Z"/><path class="cls-3" d="M629.17526,122.68124a6.25444,6.25444,0,0,0,2.51163-1.5436,7.01611,7.01611,0,0,0,1.64826-2.82558,13.75823,13.75823,0,0,0,.57558-4.26454q0-4.60334-2.25-6.75-2.24869-2.14665-6.5407-2.14535h-11.0407v18h11.93023A10.13507,10.13507,0,0,0,629.17526,122.68124Z"/><path class="cls-3" d="M254.34249,104.15217h-8.52632a8.14594,8.14594,0,0,0-6.31579,2.65266q-2.41973,2.654-2.42105,7.63964v32.41541q0,4.98567,2.42105,7.63964a8.14593,8.14593,0,0,0,6.31579,2.65265h8.52632a8.14592,8.14592,0,0,0,6.31579-2.65265q2.41974-2.654,2.42105-7.63964V114.44447q0-4.98567-2.42105-7.63964A8.14592,8.14592,0,0,0,254.34249,104.15217Z"/><path class="cls-3" d="M628.04259,136.15217H614.07933v20h13.96326a9.4559,9.4559,0,0,0,6.95538-2.51968q2.54724-2.51969,2.54593-7.71654,0-5.03937-2.54593-7.40157A9.82761,9.82761,0,0,0,628.04259,136.15217Z"/><path class="cls-3" d="M810.07933,194.15217v-124h-611v108.5813l27.1741,15.84907m51.8259-45.601a21.49762,21.49762,0,0,1-1.62933,8.42015,19.08092,19.08092,0,0,1-4.701,6.70939,21.88372,21.88372,0,0,1-7.50563,4.43729,29.22769,29.22769,0,0,1-9.98969,1.60383h-9.29522a29.16869,29.16869,0,0,1-10.0164-1.60383,22.21638,22.21638,0,0,1-7.50562-4.43729,18.94648,18.94648,0,0,1-4.72774-6.70939,21.49744,21.49744,0,0,1-1.62934-8.42015V113.32284a21.49744,21.49744,0,0,1,1.62934-8.42015,18.94639,18.94639,0,0,1,4.72774-6.70939A22.21638,22.21638,0,0,1,234.942,93.756a29.16868,29.16868,0,0,1,10.0164-1.60384h9.29522a29.22769,29.22769,0,0,1,9.98969,1.60384A21.88372,21.88372,0,0,1,271.749,98.1933a19.08083,19.08083,0,0,1,4.701,6.70939,21.49762,21.49762,0,0,1,1.62933,8.42015Zm72-1.94468a24.749,24.749,0,0,1-1.6514,9.14972,18.45627,18.45627,0,0,1-5.14065,7.22908,24.65547,24.65547,0,0,1-8.89627,4.74825,43.12983,43.12983,0,0,1-12.91822,1.70724,42.25491,42.25491,0,0,1-12.73178-1.70724,24.39837,24.39837,0,0,1-8.843-4.74825,18.81424,18.81424,0,0,1-5.14065-7.22908,24.3832,24.3832,0,0,1-1.678-9.14972V93.15217h15v50.47018a19.34865,19.34865,0,0,0,.756,5.60187,10.62818,10.62818,0,0,0,2.403,4.26809,10.8563,10.8563,0,0,0,4.239,2.72091,17.91151,17.91151,0,0,0,6.21.96032,19.72522,19.72522,0,0,0,6.588-.93364,9.51374,9.51374,0,0,0,4.104-2.69423,9.96887,9.96887,0,0,0,2.106-4.2681,24.55411,24.55411,0,0,0,.594-5.65522V93.15217h15Zm63-41.88466h-20v63h-15v-63h-19v-12h54Zm90,43.82934a21.49762,21.49762,0,0,1-1.62933,8.42015,19.08092,19.08092,0,0,1-4.701,6.70939,21.88372,21.88372,0,0,1-7.50563,4.43729,29.22769,29.22769,0,0,1-9.98969,1.60383h-9.29522a29.16869,29.16869,0,0,1-10.0164-1.60383,22.21638,22.21638,0,0,1-7.50562-4.43729,18.94648,18.94648,0,0,1-4.72774-6.70939,21.49744,21.49744,0,0,1-1.62934-8.42015V113.32284a21.49744,21.49744,0,0,1,1.62934-8.42015,18.94639,18.94639,0,0,1,4.72774-6.70939A22.21638,22.21638,0,0,1,459.942,93.756a29.16868,29.16868,0,0,1,10.0164-1.60384h9.29522a29.22769,29.22769,0,0,1,9.98969,1.60384A21.88372,21.88372,0,0,1,496.749,98.1933a19.08083,19.08083,0,0,1,4.701,6.70939,21.49762,21.49762,0,0,1,1.62933,8.42015Zm58-43.82934h-27v22h25v12h-25v29h-15v-75h42Zm90.04353,50.89809a18.26982,18.26982,0,0,1-4.51168,6.71444,18.90205,18.90205,0,0,1-6.92675,4.034,27.72374,27.72374,0,0,1-8.86412,1.3535h-31.741v-75H627.6356a30.37192,30.37192,0,0,1,8.466,1.14119,19.09685,19.09685,0,0,1,6.90021,3.55627,17.14318,17.14318,0,0,1,4.67091,6.104,20.59886,20.59886,0,0,1,1.72505,8.7845q0,6.73965-3.052,10.66879a15.50433,15.50433,0,0,1-8.0414,5.414,17.23412,17.23412,0,0,1,5.12208,1.51274,15.20106,15.20106,0,0,1,4.64437,3.37049,16.95047,16.95047,0,0,1,3.37049,5.38747,19.91134,19.91134,0,0,1,1.30042,7.51062A25.25128,25.25128,0,0,1,651.12286,156.05026Zm70.95647-7.06875a21.49762,21.49762,0,0,1-1.62933,8.42015,19.08092,19.08092,0,0,1-4.701,6.70939,21.88372,21.88372,0,0,1-7.50563,4.43729,29.22769,29.22769,0,0,1-9.98969,1.60383h-9.29522a29.16869,29.16869,0,0,1-10.0164-1.60383,22.21638,22.21638,0,0,1-7.50562-4.43729,18.94648,18.94648,0,0,1-4.72774-6.70939,21.49744,21.49744,0,0,1-1.62934-8.42015V113.32284a21.49744,21.49744,0,0,1,1.62934-8.42015,18.94639,18.94639,0,0,1,4.72774-6.70939A22.21638,22.21638,0,0,1,678.942,93.756a29.16868,29.16868,0,0,1,10.0164-1.60384h9.29522a29.22769,29.22769,0,0,1,9.98969,1.60384A21.88372,21.88372,0,0,1,715.749,98.1933a19.08083,19.08083,0,0,1,4.701,6.70939,21.49762,21.49762,0,0,1,1.62933,8.42015Zm56.47375,19.17066L760.40021,138.269l-18.15286,29.88322H726.21762l24.89385-38.58811L727.7569,93.15217h16.08281l16.5605,27.60085,16.50744-27.60085h16.0828l-23.46072,36.41189,25,38.58811Z"/><path class="cls-3" d="M697.34249,104.15217h-8.52632a8.14594,8.14594,0,0,0-6.31579,2.65266q-2.41972,2.654-2.421,7.63964v32.41541q0,4.98567,2.421,7.63964a8.14593,8.14593,0,0,0,6.31579,2.65265h8.52632a8.14592,8.14592,0,0,0,6.31579-2.65265q2.41974-2.654,2.42105-7.63964V114.44447q0-4.98567-2.42105-7.63964A8.14592,8.14592,0,0,0,697.34249,104.15217Z"/></g></g></svg>